<?xml version="1.0"?>
<svg version="1.1" xmlns="http://www.w3.org/2000/svg" width="615" height="120" style=""><path fill="#299e5a" d="M64,89l-34.5,0c0,11,5.9,18,14.5,18c10,0,16.8-5.5,16.8-5.5l3.5,5.2s-9.3,8.3-21.3,8.3c-16,0-24-10.5-24-27c0-16,10-28,24.5-28s21,8.5,21,23.5c0,2.5-0.5,5.3-0.5,5.5z M29.9,81.5l24,0c0-7.5-2.9-13.7-10.9-13.7s-12.5,6.2-13.1,13.7z"/><path fill="#02080d" d="M127.84,70.8l-2.07-8.64s-4.23-1.44-10.08-1.44c-9.45,0-14.85,7.02-14.85,22.05c0,14.58,5.85,20.7,15.3,20.7c9,0,17.1-6.3,17.1-6.3l4.95,8.1s-9.45,9.81-23.58,9.81c-18.27,0-28.8-10.98-28.8-31.86c0-21.15,11.88-33.75,30.33-33.75c10.89,0,20.97,4.23,20.97,4.23l-0.45,17.1l-8.82,0z M174.5959,64.5c14.58,0,22.68,8.82,22.68,24.3c0,16.2-9.45,26.1-24.03,26.1c-14.67,0-22.95-7.65-22.95-24.75c0-16.2,9.63-25.65,24.3-25.65z M174.1459,75.3c-6.57,0-9.9,3.6-9.9,14.4c0,9.9,2.88,14.4,9.45,14.4c6.48,0,9.63-4.05,9.63-14.85c0-9.18-2.7-13.95-9.18-13.95z M293.8018,106.8l0,7.2l-24.39,0l0-7.2l4.77-2.25l0-21.42c0-4.95-1.44-7.38-5.22-7.38c-5.85,0-9.99,4.68-9.99,4.68l0,24.12l4.68,2.25l0,7.2l-22.86,0l0-7.2l4.68-2.25l0-21.42c0-4.95-1.26-7.38-5.13-7.38c-5.85,0-10.08,4.68-10.08,4.68l0,24.12l4.77,2.25l0,7.2l-25.2,0l0-7.2l6.93-2.25l0-29.25l-6.84-2.25l0-7.2l18.81-0.45l0.63,6.39s7.83-7.29,15.75-7.29c6.39,0,10.35,2.97,12.42,7.74c1.53-1.53,8.28-7.74,16.29-7.74c9.45,0,13.86,6.12,13.86,16.2l0,23.85z M389.4277,106.8l0,7.2l-24.39,0l0-7.2l4.77-2.25l0-21.42c0-4.95-1.44-7.38-5.22-7.38c-5.85,0-9.99,4.68-9.99,4.68l0,24.12l4.68,2.25l0,7.2l-22.86,0l0-7.2l4.68-2.25l0-21.42c0-4.95-1.26-7.38-5.13-7.38c-5.85,0-10.08,4.68-10.08,4.68l0,24.12l4.77,2.25l0,7.2l-25.2,0l0-7.2l6.93-2.25l0-29.25l-6.84-2.25l0-7.2l18.81-0.45l0.63,6.39s7.83-7.29,15.75-7.29c6.39,0,10.35,2.97,12.42,7.74c1.53-1.53,8.28-7.74,16.29-7.74c9.45,0,13.86,6.12,13.86,16.2l0,23.85z M445.0036,92.67l-29.88,0c0.54,7.2,4.68,11.43,10.89,11.43c7.47,0,15.12-4.23,15.12-4.23l3.87,7.47s-9,7.56-20.52,7.56c-15.48,0-23.4-9-23.4-24.3c0-15.75,8.91-26.1,24.03-26.1c13.41,0,20.43,8.28,20.43,21.15c0,3.42-0.54,6.75-0.54,7.02z M415.3036,84.3l16.29,0c0-5.13-2.16-9-7.38-9c-5.04,0-8.19,3.69-8.91,9z M476.9995,65.4l0.81,6.21s6.48-7.11,12.51-7.11c4.95,0,8.37,1.62,8.37,1.62l-0.72,17.28l-8.1,0l-1.35-7.65c-5.22,0-9.72,5.04-9.72,5.04l0,23.76l9,2.25l0,7.2l-29.7,0l0-7.2l7.2-2.25l0-29.25l-7.2-2.25l0-7.2z M546.7954,99.33l4.5,7.92c-2.25,1.98-9.27,7.65-19.35,7.65c-14.85,0-23.4-9.18-23.4-24.48c0-16.02,9-25.92,24.75-25.92c7.74,0,15.75,3.15,15.75,3.15l-0.45,14.76l-8.1,0l-1.26-6.39s-2.61-0.72-6.21-0.72c-6.48,0-10.53,4.32-10.53,13.32c0,9.81,3.78,15.48,11.25,15.48c6.3,0,10.26-3.15,13.05-4.77z M605.9713,92.67l-29.88,0c0.54,7.2,4.68,11.43,10.89,11.43c7.47,0,15.12-4.23,15.12-4.23l3.87,7.47s-9,7.56-20.52,7.56c-15.48,0-23.4-9-23.4-24.3c0-15.75,8.91-26.1,24.03-26.1c13.41,0,20.43,8.28,20.43,21.15c0,3.42-0.54,6.75-0.54,7.02z M576.2713,84.3l16.29,0c0-5.13-2.16-9-7.38-9c-5.04,0-8.19,3.69-8.91,9z"/></svg>
